<svg id="Layer_1" data-name="Layer 1" xmlns="http://www.w3.org/2000/svg" viewBox="0 0 249 70"><defs><style>.cls-1{fill:#124482;}</style></defs><title>logo_trend</title><path class="cls-1" d="M2.43,11.35H46.25V22.87H31.55V58H17.13V22.87H2.43Z"/><path class="cls-1" d="M52,58V11.35H76a35.11,35.11,0,0,1,10.22,1.14,11,11,0,0,1,5.7,4.25,12.91,12.91,0,0,1,2.16,7.56,12.48,12.48,0,0,1-6.21,11.26,17.29,17.29,0,0,1-5.06,1.85,14.36,14.36,0,0,1,3.75,1.72,14.62,14.62,0,0,1,2.31,2.45,19.21,19.21,0,0,1,2,2.9l7,13.52H81.59L73.88,43.74a10.7,10.7,0,0,0-2.61-3.59,6,6,0,0,0-3.53-1.08H66.47V58ZM66.47,30.25h6.08a21.23,21.23,0,0,0,3.81-.64,3.76,3.76,0,0,0,2.34-1.46,4.28,4.28,0,0,0,.91-2.7A4.29,4.29,0,0,0,78.18,22q-1.44-1.21-5.38-1.21H66.47Z"/><path class="cls-1" d="M102.16,11.35h38.63v10H116.61v7.41H139v9.52H116.61v9.19h24.88V58H102.16Z"/><path class="cls-1" d="M149,11.35h13.46L180,37.16V11.35h13.59V58H180L162.55,32.38V58H149Z"/><path class="cls-1" d="M203.64,11.35h21.42a25.58,25.58,0,0,1,10.23,1.72A16.6,16.6,0,0,1,241.73,18a20.25,20.25,0,0,1,3.69,7.48,34.37,34.37,0,0,1,1.15,9q0,7.49-1.7,11.6A19.24,19.24,0,0,1,240.14,53a15.41,15.41,0,0,1-6.49,3.71A33.39,33.39,0,0,1,225.06,58H203.64Zm14.42,10.56V47.4h3.53q4.51,0,6.43-1a6.79,6.79,0,0,0,3-3.5c.72-1.67,1.08-4.36,1.08-8.1q0-7.41-2.42-10.15c-1.61-1.82-4.28-2.74-8-2.74Z"/></svg>