<svg id="Layer_1" data-name="Layer 1" xmlns="http://www.w3.org/2000/svg" viewBox="0 0 200 60"><defs><style>.cls-1{fill:#124482;}</style></defs><title>logo_trend</title><path class="cls-1" d="M2.05,12.29H37.21v9.24H25.41v28.2H13.84V21.53H2.05Z"/><path class="cls-1" d="M41.81,49.73V12.29H61.09a28.1,28.1,0,0,1,8.2.92,8.72,8.72,0,0,1,4.57,3.41,10.31,10.31,0,0,1,1.74,6.06,10,10,0,0,1-5,9,13.73,13.73,0,0,1-4.06,1.48,11.48,11.48,0,0,1,3,1.38,11.53,11.53,0,0,1,1.85,2A14.4,14.4,0,0,1,73,38.88l5.61,10.85H65.56L59.38,38.28a8.66,8.66,0,0,0-2.09-2.88,4.87,4.87,0,0,0-2.84-.87h-1v15.2ZM53.43,27.46h4.88A17.32,17.32,0,0,0,61.37,27a3.11,3.11,0,0,0,1.88-1.18A3.43,3.43,0,0,0,64,23.6a3.45,3.45,0,0,0-1.15-2.78c-.77-.65-2.21-1-4.32-1H53.43Z"/><path class="cls-1" d="M82.07,12.29h31v8H93.67v5.95h18v7.64h-18v7.38h20v8.48H82.07Z"/><path class="cls-1" d="M119.66,12.29h10.8L144.56,33V12.29h10.9V49.73h-10.9l-14-20.56V49.73H119.66Z"/><path class="cls-1" d="M163.51,12.29h17.18a20.55,20.55,0,0,1,8.21,1.38,13.3,13.3,0,0,1,5.17,4,16.4,16.4,0,0,1,3,6,28,28,0,0,1,.91,7.25,25.25,25.25,0,0,1-1.36,9.31,15.52,15.52,0,0,1-3.79,5.54,12.37,12.37,0,0,1-5.21,3,27,27,0,0,1-6.9,1H163.51Zm11.56,8.48V41.22h2.84a12,12,0,0,0,5.16-.8,5.51,5.51,0,0,0,2.4-2.81,17.61,17.61,0,0,0,.87-6.5c0-4-.65-6.68-2-8.15S181,20.77,178,20.77Z"/></svg>