<svg id="Layer_1" data-name="Layer 1" xmlns="http://www.w3.org/2000/svg" viewBox="0 0 195 55"><defs><style>.cls-1{fill:#124482;}</style></defs><title>logo_trend_195x55</title><path class="cls-1" d="M1.84,9.67H36.18v9H24.66V46.23H13.36V18.69H1.84Z"/><path class="cls-1" d="M40.68,46.23V9.67H59.5a27.71,27.71,0,0,1,8,.89A8.55,8.55,0,0,1,72,13.89a10.12,10.12,0,0,1,1.7,5.93,10.17,10.17,0,0,1-1.3,5.25,10,10,0,0,1-3.57,3.57,13.26,13.26,0,0,1-4,1.45,11.4,11.4,0,0,1,2.94,1.35,11.76,11.76,0,0,1,1.8,1.92,14.8,14.8,0,0,1,1.59,2.27l5.47,10.6H63.87l-6-11.18a8.6,8.6,0,0,0-2-2.82A4.79,4.79,0,0,0,53,31.39H52V46.23ZM52,24.48h4.77a17.39,17.39,0,0,0,3-.5,3,3,0,0,0,1.83-1.15,3.39,3.39,0,0,0,.71-2.12A3.33,3.33,0,0,0,61.2,18c-.75-.64-2.15-.95-4.21-.95H52Z"/><path class="cls-1" d="M80,9.67h30.28v7.8h-19v5.81H108.9v7.46H91.32V38h19.5v8.28H80Z"/><path class="cls-1" d="M116.7,9.67h10.55L141,29.89V9.67h10.65V46.23H141L127.32,26.15V46.23H116.7Z"/><path class="cls-1" d="M159.52,9.67H176.3a20.09,20.09,0,0,1,8,1.34,13,13,0,0,1,5.05,3.87,16,16,0,0,1,2.89,5.86,27.14,27.14,0,0,1,.9,7.08,24.78,24.78,0,0,1-1.33,9.09,15,15,0,0,1-3.71,5.41A12,12,0,0,1,183,45.23a26.38,26.38,0,0,1-6.73,1H159.52ZM170.82,18v20h2.76a11.74,11.74,0,0,0,5-.78A5.31,5.31,0,0,0,181,34.39a17.08,17.08,0,0,0,.85-6.34q0-5.82-1.89-8c-1.27-1.43-3.36-2.14-6.29-2.14Z"/></svg>